<svg width="16" height="16" viewBox="0 0 16 16" fill="none" xmlns="http://www.w3.org/2000/svg">
<mask id="path-1-inside-1_6522_8552" fill="white">
<path fill-rule="evenodd" clip-rule="evenodd" d="M14.6668 7.99992C14.6668 11.6818 11.6821 14.6666 8.00016 14.6666C4.31826 14.6666 1.3335 11.6818 1.3335 7.99992C1.3335 4.31802 4.31826 1.33325 8.00016 1.33325C11.6821 1.33325 14.6668 4.31802 14.6668 7.99992ZM6.28327 5.71701C6.12706 5.5608 5.87379 5.5608 5.71758 5.71701C5.56137 5.87322 5.56137 6.12649 5.71758 6.2827L7.43474 7.99985L5.71758 9.71701C5.56137 9.87322 5.56137 10.1265 5.71758 10.2827C5.87379 10.4389 6.12706 10.4389 6.28327 10.2827L8.00042 8.56554L9.71758 10.2827C9.87379 10.4389 10.1271 10.4389 10.2833 10.2827C10.4395 10.1265 10.4395 9.87322 10.2833 9.71701L8.56611 7.99985L10.2833 6.2827C10.4395 6.12649 10.4395 5.87322 10.2833 5.71701C10.1271 5.5608 9.87379 5.5608 9.71758 5.71701L8.00042 7.43417L6.28327 5.71701Z"/>
</mask>
<path fill-rule="evenodd" clip-rule="evenodd" d="M14.6668 7.99992C14.6668 11.6818 11.6821 14.6666 8.00016 14.6666C4.31826 14.6666 1.3335 11.6818 1.3335 7.99992C1.3335 4.31802 4.31826 1.33325 8.00016 1.33325C11.6821 1.33325 14.6668 4.31802 14.6668 7.99992ZM6.28327 5.71701C6.12706 5.5608 5.87379 5.5608 5.71758 5.71701C5.56137 5.87322 5.56137 6.12649 5.71758 6.2827L7.43474 7.99985L5.71758 9.71701C5.56137 9.87322 5.56137 10.1265 5.71758 10.2827C5.87379 10.4389 6.12706 10.4389 6.28327 10.2827L8.00042 8.56554L9.71758 10.2827C9.87379 10.4389 10.1271 10.4389 10.2833 10.2827C10.4395 10.1265 10.4395 9.87322 10.2833 9.71701L8.56611 7.99985L10.2833 6.2827C10.4395 6.12649 10.4395 5.87322 10.2833 5.71701C10.1271 5.5608 9.87379 5.5608 9.71758 5.71701L8.00042 7.43417L6.28327 5.71701Z" fill="#5B5C5B"/>
<path d="M6.28327 5.71701L6.99037 5.0099L6.99037 5.0099L6.28327 5.71701ZM5.71758 6.2827L6.42469 5.57559H6.42469L5.71758 6.2827ZM7.43474 7.99985L8.14184 8.70696L8.84895 7.99985L8.14184 7.29275L7.43474 7.99985ZM5.71758 10.2827L6.42469 9.57559L6.42469 9.57559L5.71758 10.2827ZM6.28327 10.2827L5.57616 9.57559L6.28327 10.2827ZM8.00042 8.56554L8.70753 7.85843L8.00042 7.15133L7.29332 7.85843L8.00042 8.56554ZM9.71758 10.2827L10.4247 9.57559L9.71758 10.2827ZM10.2833 9.71701L10.9904 9.0099V9.0099L10.2833 9.71701ZM8.56611 7.99985L7.859 7.29275L7.1519 7.99985L7.859 8.70696L8.56611 7.99985ZM10.2833 5.71701L10.9904 5.0099L10.9904 5.0099L10.2833 5.71701ZM9.71758 5.71701L10.4247 6.42412L10.4247 6.42412L9.71758 5.71701ZM8.00042 7.43417L7.29332 8.14127L8.00042 8.84838L8.70753 8.14127L8.00042 7.43417ZM8.00016 15.6666C12.2343 15.6666 15.6668 12.2341 15.6668 7.99992H13.6668C13.6668 11.1295 11.1298 13.6666 8.00016 13.6666V15.6666ZM0.333496 7.99992C0.333496 12.2341 3.76598 15.6666 8.00016 15.6666V13.6666C4.87055 13.6666 2.3335 11.1295 2.3335 7.99992H0.333496ZM8.00016 0.333252C3.76598 0.333252 0.333496 3.76574 0.333496 7.99992H2.3335C2.3335 4.87031 4.87055 2.33325 8.00016 2.33325V0.333252ZM15.6668 7.99992C15.6668 3.76574 12.2343 0.333252 8.00016 0.333252V2.33325C11.1298 2.33325 13.6668 4.87031 13.6668 7.99992H15.6668ZM6.42469 6.42412C6.19037 6.65843 5.81047 6.65843 5.57616 6.42412L6.99037 5.0099C6.44364 4.46317 5.55721 4.46317 5.01047 5.0099L6.42469 6.42412ZM6.42469 5.57559C6.659 5.8099 6.659 6.1898 6.42469 6.42412L5.01047 5.0099C4.46374 5.55664 4.46374 6.44307 5.01047 6.9898L6.42469 5.57559ZM8.14184 7.29275L6.42469 5.57559L5.01047 6.9898L6.72763 8.70696L8.14184 7.29275ZM6.42469 10.4241L8.14184 8.70696L6.72763 7.29275L5.01047 9.0099L6.42469 10.4241ZM6.42469 9.57559C6.659 9.8099 6.659 10.1898 6.42469 10.4241L5.01047 9.0099C4.46374 9.55664 4.46374 10.4431 5.01047 10.9898L6.42469 9.57559ZM5.57616 9.57559C5.81047 9.34128 6.19037 9.34127 6.42469 9.57559L5.01047 10.9898C5.55721 11.5365 6.44364 11.5365 6.99037 10.9898L5.57616 9.57559ZM7.29332 7.85843L5.57616 9.57559L6.99037 10.9898L8.70753 9.27265L7.29332 7.85843ZM10.4247 9.57559L8.70753 7.85843L7.29332 9.27265L9.01047 10.9898L10.4247 9.57559ZM9.57616 9.57559C9.81047 9.34127 10.1904 9.34127 10.4247 9.57559L9.01047 10.9898C9.55721 11.5365 10.4436 11.5365 10.9904 10.9898L9.57616 9.57559ZM9.57616 10.4241C9.34184 10.1898 9.34184 9.8099 9.57616 9.57559L10.9904 10.9898C11.5371 10.4431 11.5371 9.55664 10.9904 9.0099L9.57616 10.4241ZM7.859 8.70696L9.57616 10.4241L10.9904 9.0099L9.27322 7.29275L7.859 8.70696ZM9.57616 5.57559L7.859 7.29275L9.27322 8.70696L10.9904 6.9898L9.57616 5.57559ZM9.57616 6.42412C9.34184 6.1898 9.34184 5.8099 9.57616 5.57559L10.9904 6.9898C11.5371 6.44307 11.5371 5.55664 10.9904 5.0099L9.57616 6.42412ZM10.4247 6.42412C10.1904 6.65843 9.81047 6.65843 9.57616 6.42412L10.9904 5.0099C10.4436 4.46317 9.55721 4.46317 9.01047 5.0099L10.4247 6.42412ZM8.70753 8.14127L10.4247 6.42412L9.01047 5.0099L7.29332 6.72706L8.70753 8.14127ZM5.57616 6.42412L7.29332 8.14127L8.70753 6.72706L6.99037 5.0099L5.57616 6.42412Z" fill="#5B5C5B" mask="url(#path-1-inside-1_6522_8552)"/>
</svg>
