<svg width="18" height="18" viewBox="0 0 18 18" fill="none" xmlns="http://www.w3.org/2000/svg">
<path d="M8.61637 12.5625H9.4673V9.47882H12.5625V8.62787H9.4673V5.4375H8.61637V8.62787H5.43753V9.47882H8.61637V12.5625ZM9.00626 16.125C8.01932 16.125 7.09496 15.938 6.23319 15.564C5.37141 15.19 4.61669 14.6793 3.96903 14.0319C3.32136 13.3845 2.81044 12.6297 2.43627 11.7673C2.06211 10.905 1.87503 9.97985 1.87503 8.99186C1.87503 8.00868 2.06203 7.08453 2.43603 6.21941C2.81003 5.3543 3.32072 4.60104 3.96809 3.95963C4.61548 3.3182 5.37034 2.81041 6.23266 2.43624C7.09499 2.06208 8.02014 1.875 9.00813 1.875C9.99132 1.875 10.9155 2.062 11.7806 2.436C12.6457 2.81 13.399 3.31756 14.0404 3.95869C14.6818 4.59983 15.1896 5.35376 15.5638 6.22048C15.9379 7.08719 16.125 8.01161 16.125 8.99374C16.125 9.98068 15.938 10.905 15.564 11.7668C15.19 12.6286 14.6824 13.3822 14.0413 14.0275C13.4002 14.6729 12.6462 15.1838 11.7795 15.5603C10.9128 15.9367 9.98838 16.125 9.00626 16.125ZM9.00939 15.274C10.7493 15.274 12.2284 14.663 13.4466 13.4408C14.6649 12.2187 15.274 10.7353 15.274 8.99061C15.274 7.25071 14.6661 5.77162 13.4502 4.55334C12.2342 3.33508 10.7508 2.72595 9.00001 2.72595C7.26155 2.72595 5.78126 3.33391 4.55915 4.54984C3.33704 5.76576 2.72598 7.24915 2.72598 8.99998C2.72598 10.7384 3.33704 12.2187 4.55915 13.4408C5.78126 14.663 7.26467 15.274 9.00939 15.274Z" fill="#26B9D1"/>
</svg>
