<svg width="10" height="10" viewBox="0 0 10 10" fill="none" xmlns="http://www.w3.org/2000/svg">
<path d="M5.16673 6.59303C5.12245 6.64023 5.06239 6.66675 4.99976 6.66675C4.93714 6.66675 4.87708 6.64023 4.83279 6.59303L2.56891 4.1796C2.53599 4.14439 2.51358 4.09958 2.50451 4.05081C2.49544 4.00205 2.50012 3.95151 2.51795 3.90558C2.53578 3.85964 2.56597 3.82036 2.60471 3.79269C2.64345 3.76502 2.68901 3.75019 2.73564 3.75008L7.26341 3.75008C7.31018 3.74999 7.35592 3.76471 7.39484 3.79237C7.43375 3.82003 7.46409 3.85938 7.482 3.90544C7.49991 3.9515 7.50459 4.00219 7.49544 4.05109C7.48629 4.09999 7.46373 4.14489 7.43062 4.1801L5.16673 6.59303Z" fill="#4F4F4F"/>
</svg>
