<svg width="16" height="16" viewBox="0 0 16 16" fill="none" xmlns="http://www.w3.org/2000/svg">
<path d="M7.66667 14.6666C6.65556 14.6666 5.79167 14.3194 5.075 13.6249C4.35833 12.9305 4 12.0777 4 11.0666V3.89992C4 3.18881 4.25278 2.58325 4.75833 2.08325C5.26389 1.58325 5.87222 1.33325 6.58333 1.33325C7.30556 1.33325 7.91667 1.58325 8.41667 2.08325C8.91667 2.58325 9.16667 3.19436 9.16667 3.91659V10.4833C9.16667 10.9055 9.02222 11.2638 8.73333 11.5583C8.44444 11.8527 8.08889 11.9999 7.66667 11.9999C7.24444 11.9999 6.88889 11.8416 6.6 11.5249C6.31111 11.2083 6.16667 10.8333 6.16667 10.3999V3.86659H6.83333V10.4499C6.83333 10.6944 6.91389 10.9027 7.075 11.0749C7.23611 11.2471 7.43333 11.3333 7.66667 11.3333C7.9 11.3333 8.09722 11.2499 8.25833 11.0833C8.41944 10.9166 8.5 10.7166 8.5 10.4833V3.89992C8.5 3.36659 8.31389 2.91659 7.94167 2.54992C7.56944 2.18325 7.11667 1.99992 6.58333 1.99992C6.05 1.99992 5.59722 2.18325 5.225 2.54992C4.85278 2.91659 4.66667 3.36659 4.66667 3.89992V11.0999C4.66667 11.911 4.96111 12.5971 5.55 13.1583C6.13889 13.7194 6.84444 13.9999 7.66667 13.9999C8.5 13.9999 9.20833 13.7166 9.79167 13.1499C10.375 12.5833 10.6667 11.8888 10.6667 11.0666V3.86659H11.3333V11.0499C11.3333 12.061 10.975 12.9166 10.2583 13.6166C9.54167 14.3166 8.67778 14.6666 7.66667 14.6666Z" fill="black"/>
</svg>
