<svg width="20" height="20" viewBox="0 0 20 20" fill="none" xmlns="http://www.w3.org/2000/svg">
<g clip-path="url(#clip0_6091_2512)">
<path d="M8.36111 14.3077L15.4744 7.19444L14.8163 6.54272L8.36111 13.0192L5.11325 9.77136L4.48289 10.4231L8.36111 14.3077ZM10.0037 20C8.62517 20 7.33078 19.7376 6.12056 19.2128C4.91031 18.688 3.85031 17.9711 2.94053 17.0622C2.03077 16.1533 1.31324 15.0943 0.787944 13.8852C0.262648 12.6761 0 11.3823 0 10.0037C0 8.62089 0.262398 7.3208 0.787195 6.10344C1.31201 4.88609 2.02888 3.82716 2.93781 2.92664C3.84673 2.02614 4.90574 1.31324 6.11483 0.787945C7.32393 0.262649 8.61774 0 9.99628 0C11.3791 0 12.6792 0.262398 13.8966 0.787194C15.1139 1.31201 16.1728 2.02425 17.0734 2.92392C17.9739 3.82358 18.6868 4.88152 19.2121 6.09772C19.7374 7.31394 20 8.61346 20 9.99628C20 11.3748 19.7376 12.6692 19.2128 13.8794C18.688 15.0897 17.9757 16.1497 17.0761 17.0595C16.1764 17.9692 15.1185 18.6868 13.9023 19.2121C12.6861 19.7374 11.3865 20 10.0037 20Z" fill="#108294"/>
</g>
<defs>
<clipPath id="clip0_6091_2512">
<rect width="20" height="20" fill="white"/>
</clipPath>
</defs>
</svg>
