<svg width="20" height="20" viewBox="0 0 20 20" fill="none" xmlns="http://www.w3.org/2000/svg">
<g clip-path="url(#clip0_6733_25595)">
<rect width="20" height="20" fill="white" fill-opacity="0.01"/>
<path d="M10 17.7778C11.0214 17.7778 12.0328 17.5766 12.9764 17.1857C13.9201 16.7949 14.7775 16.222 15.4997 15.4997C16.222 14.7775 16.7949 13.9201 17.1857 12.9764C17.5766 12.0328 17.7778 11.0214 17.7778 10C17.7778 8.97861 17.5766 7.96722 17.1857 7.02357C16.7949 6.07993 16.222 5.22251 15.4997 4.50028C14.7775 3.77805 13.9201 3.20514 12.9764 2.81427C12.0328 2.4234 11.0214 2.22222 10 2.22222C7.93721 2.22222 5.9589 3.04166 4.50028 4.50028C3.04166 5.9589 2.22222 7.93721 2.22222 10C2.22222 12.0628 3.04166 14.0411 4.50028 15.4997C5.9589 16.9583 7.93721 17.7778 10 17.7778ZM10 20C8.68678 20 7.38642 19.7413 6.17317 19.2388C4.95991 18.7362 3.85752 17.9997 2.92893 17.0711C2.00035 16.1425 1.26375 15.0401 0.761205 13.8268C0.258658 12.6136 0 11.3132 0 10C0 8.68678 0.258658 7.38642 0.761205 6.17317C1.26375 4.95991 2.00035 3.85752 2.92893 2.92893C3.85752 2.00035 4.95991 1.26375 6.17317 0.761205C7.38642 0.258658 8.68678 -1.95685e-08 10 0C12.6522 3.95203e-08 15.1957 1.05357 17.0711 2.92893C18.9464 4.8043 20 7.34784 20 10C20 12.6522 18.9464 15.1957 17.0711 17.0711C15.1957 18.9464 12.6522 20 10 20Z" fill="white"/>
</g>
<defs>
<clipPath id="clip0_6733_25595">
<rect width="20" height="20" fill="white"/>
</clipPath>
</defs>
</svg>
