<svg width="28" height="28" viewBox="0 0 28 28" fill="none" xmlns="http://www.w3.org/2000/svg">
<path d="M13.9124 23.9163C11.2321 23.9163 8.9425 22.9859 7.04367 21.1253C5.14486 19.2646 4.15805 16.9881 4.08325 14.2958H5.40695C5.49671 16.6067 6.35526 18.5672 7.9826 20.1774C9.60995 21.7875 11.5865 22.5926 13.9124 22.5926C16.3295 22.5926 18.3767 21.746 20.0542 20.0528C21.7317 18.3597 22.5704 16.3046 22.5704 13.8875C22.5704 11.5138 21.7257 9.50686 20.0363 7.8668C18.3468 6.22674 16.3056 5.40671 13.9124 5.40671C12.6575 5.40671 11.474 5.68193 10.3619 6.23236C9.24986 6.78277 8.27353 7.52016 7.43293 8.44451H10.372V9.76821H5.11759V4.52051H6.44129V7.54486C7.40004 6.47094 8.52594 5.62549 9.81899 5.0085C11.112 4.3915 12.4765 4.08301 13.9124 4.08301C15.2885 4.08301 16.5808 4.34028 17.7893 4.85482C18.9978 5.36934 20.0553 6.07382 20.9617 6.96826C21.8681 7.86271 22.5834 8.90822 23.1077 10.1048C23.6319 11.3014 23.8941 12.5839 23.8941 13.9525C23.8941 15.3286 23.6319 16.6228 23.1077 17.835C22.5834 19.0473 21.8681 20.1018 20.9617 20.9985C20.0553 21.8952 18.9978 22.6057 17.7893 23.1299C16.5808 23.6542 15.2885 23.9163 13.9124 23.9163ZM17.7579 18.5855L13.3672 14.2419V8.10124H14.6909V13.6923L18.7092 17.6343L17.7579 18.5855Z" fill="#383838"/>
</svg>
