<svg width="20" height="20" viewBox="0 0 20 20" fill="none" xmlns="http://www.w3.org/2000/svg">
<path d="M4.10355 3.39645C3.90829 3.20118 3.59171 3.20118 3.39645 3.39645C3.20118 3.59171 3.20118 3.90829 3.39645 4.10355L9.29298 10.0001L3.39661 15.8964C3.20135 16.0917 3.20135 16.4083 3.39661 16.6036C3.59187 16.7988 3.90845 16.7988 4.10372 16.6036L10.0001 10.7072L15.8964 16.6036C16.0917 16.7988 16.4083 16.7988 16.6036 16.6036C16.7988 16.4083 16.7988 16.0917 16.6036 15.8964L10.7072 10.0001L16.6037 4.10355C16.799 3.90829 16.799 3.59171 16.6037 3.39645C16.4085 3.20118 16.0919 3.20118 15.8966 3.39645L10.0001 9.29298L4.10355 3.39645Z" fill="#5B5C5B"/>
</svg>
