<svg width="16" height="16" viewBox="0 0 16 16" fill="none" xmlns="http://www.w3.org/2000/svg">
<path d="M7.32692 11.0256H4.69232C3.85523 11.0256 3.14169 10.7306 2.55169 10.1407C1.96169 9.55079 1.66669 8.83734 1.66669 8.00035C1.66669 7.16336 1.96169 6.44978 2.55169 5.85962C3.14169 5.26945 3.85523 4.97437 4.69232 4.97437H7.32692V5.73075H4.69232C4.06126 5.73075 3.52529 5.95081 3.0844 6.39093C2.64353 6.83105 2.42309 7.3661 2.42309 7.99607C2.42309 8.62602 2.64353 9.16237 3.0844 9.6051C3.52529 10.0478 4.06126 10.2692 4.69232 10.2692H7.32692V11.0256ZM5.56412 8.37818V7.62178H10.4423V8.37818H5.56412ZM8.67309 11.0256V10.2692H11.3077C11.9387 10.2692 12.4747 10.0492 12.9156 9.60903C13.3565 9.16891 13.5769 8.63386 13.5769 8.0039C13.5769 7.37394 13.3565 6.8376 12.9156 6.39487C12.4747 5.95212 11.9387 5.73075 11.3077 5.73075H8.67309V4.97437H11.3077C12.1448 4.97437 12.8583 5.26933 13.4483 5.85925C14.0383 6.44917 14.3333 7.16263 14.3333 7.99962C14.3333 8.8366 14.0383 9.55018 13.4483 10.1403C12.8583 10.7305 12.1448 11.0256 11.3077 11.0256H8.67309Z" fill="black"/>
</svg>
