<svg width="20" height="20" viewBox="0 0 20 20" fill="none" xmlns="http://www.w3.org/2000/svg">
<path d="M9.99756 16.0327C9.79467 16.0327 9.62249 15.9607 9.47961 15.8162C9.33666 15.6716 9.26548 15.4985 9.26548 15.2955C9.26548 15.0926 9.33744 14.919 9.48209 14.7734C9.6267 14.6279 9.79976 14.5555 10.0026 14.5555C10.2054 14.5555 10.3776 14.6282 10.5205 14.7743C10.6634 14.9205 10.7347 15.0956 10.7347 15.301C10.7347 15.504 10.6627 15.6762 10.5182 15.8188C10.3737 15.9616 10.2006 16.0327 9.99756 16.0327ZM9.99756 10.7346C9.79467 10.7346 9.62249 10.6627 9.47961 10.5182C9.33666 10.3736 9.26548 10.2005 9.26548 9.99751C9.26548 9.79462 9.33742 9.62244 9.48193 9.47956C9.62651 9.33661 9.79961 9.26542 10.0026 9.26542C10.2055 9.26542 10.3777 9.33737 10.5206 9.48188C10.6635 9.62645 10.7347 9.79956 10.7347 10.0025C10.7347 10.2054 10.6627 10.3776 10.5182 10.5205C10.3737 10.6635 10.2006 10.7346 9.99756 10.7346ZM9.99756 5.44459C9.79476 5.44459 9.62261 5.37189 9.47971 5.22576C9.33673 5.07955 9.26548 4.90443 9.26548 4.69903C9.26548 4.49602 9.33742 4.32389 9.48192 4.18121L9.48192 4.18122C9.62649 4.03847 9.7996 3.96738 10.0026 3.96738C10.2055 3.96738 10.3777 4.03933 10.5206 4.18384C10.6635 4.32841 10.7347 4.50152 10.7347 4.70451C10.7347 4.90741 10.6627 5.08101 10.5181 5.22662C10.3735 5.37219 10.2004 5.44459 9.99756 5.44459Z" fill="white" stroke="white" stroke-width="0.05"/>
</svg>
