<svg width="28" height="28" viewBox="0 0 28 28" fill="none" xmlns="http://www.w3.org/2000/svg">
<path d="M13.9964 22.4807C13.703 22.4807 13.453 22.3762 13.2464 22.1673C13.0398 21.9583 12.9365 21.7071 12.9365 21.4137C12.9365 21.1203 13.041 20.8684 13.2499 20.6581C13.4589 20.4478 13.7101 20.3426 14.0035 20.3426C14.2969 20.3426 14.5469 20.4482 14.7535 20.6595C14.9601 20.8708 15.0634 21.1247 15.0634 21.4214C15.0634 21.715 14.9589 21.9649 14.75 22.1712C14.541 22.3775 14.2899 22.4807 13.9964 22.4807ZM13.9964 15.0634C13.703 15.0634 13.453 14.959 13.2464 14.75C13.0398 14.5411 12.9365 14.2899 12.9365 13.9965C12.9365 13.703 13.041 13.453 13.2499 13.2464C13.4589 13.0398 13.7101 12.9365 14.0035 12.9365C14.2969 12.9365 14.5469 13.041 14.7535 13.25C14.9601 13.4589 15.0634 13.7101 15.0634 14.0035C15.0634 14.2969 14.9589 14.5469 14.75 14.7535C14.541 14.9601 14.2899 15.0634 13.9964 15.0634ZM13.9964 7.65738C13.703 7.65738 13.453 7.55175 13.2464 7.34048C13.0398 7.12922 12.9365 6.87526 12.9365 6.57859C12.9365 6.28502 13.041 6.03507 13.2499 5.82875C13.4589 5.62244 13.7101 5.51929 14.0035 5.51929C14.2969 5.51929 14.5469 5.62376 14.7535 5.83271C14.9601 6.04166 15.0634 6.29285 15.0634 6.58626C15.0634 6.87968 14.9589 7.13155 14.75 7.34188C14.541 7.55221 14.2899 7.65738 13.9964 7.65738Z" fill="white"/>
</svg>
