<svg width="20" height="20" viewBox="0 0 20 20" fill="none" xmlns="http://www.w3.org/2000/svg">
<path d="M5.3846 10.8334C5.15544 10.8334 4.95926 10.7518 4.79606 10.5886C4.63287 10.4254 4.55127 10.2292 4.55127 10.0001C4.55127 9.77091 4.63287 9.57473 4.79606 9.41154C4.95926 9.24835 5.15544 9.16675 5.3846 9.16675C5.61378 9.16675 5.80997 9.24835 5.97317 9.41154C6.13636 9.57473 6.21796 9.77091 6.21796 10.0001C6.21796 10.2292 6.13636 10.4254 5.97317 10.5886C5.80997 10.7518 5.61378 10.8334 5.3846 10.8334ZM10 10.8334C9.77083 10.8334 9.57465 10.7518 9.41146 10.5886C9.24826 10.4254 9.16667 10.2292 9.16667 10.0001C9.16667 9.77091 9.24826 9.57473 9.41146 9.41154C9.57465 9.24835 9.77083 9.16675 10 9.16675C10.2292 9.16675 10.4253 9.24835 10.5885 9.41154C10.7517 9.57473 10.8333 9.77091 10.8333 10.0001C10.8333 10.2292 10.7517 10.4254 10.5885 10.5886C10.4253 10.7518 10.2292 10.8334 10 10.8334ZM14.6154 10.8334C14.3862 10.8334 14.19 10.7518 14.0268 10.5886C13.8636 10.4254 13.782 10.2292 13.782 10.0001C13.782 9.77091 13.8636 9.57473 14.0268 9.41154C14.19 9.24835 14.3862 9.16675 14.6154 9.16675C14.8446 9.16675 15.0407 9.24835 15.2039 9.41154C15.3671 9.57473 15.4487 9.77091 15.4487 10.0001C15.4487 10.2292 15.3671 10.4254 15.2039 10.5886C15.0407 10.7518 14.8446 10.8334 14.6154 10.8334Z" fill="black"/>
</svg>
