<svg width="20" height="20" viewBox="0 0 20 20" fill="none" xmlns="http://www.w3.org/2000/svg">
<mask id="mask0_4806_24938" style="mask-type:alpha" maskUnits="userSpaceOnUse" x="0" y="0" width="20" height="20">
<rect width="20" height="20" fill="#D9D9D9"/>
</mask>
<g mask="url(#mask0_4806_24938)">
<path d="M10.0003 15.4487C9.77116 15.4487 9.57498 15.3671 9.41178 15.2039C9.24859 15.0407 9.16699 14.8446 9.16699 14.6154C9.16699 14.3862 9.24859 14.19 9.41178 14.0268C9.57498 13.8636 9.77116 13.782 10.0003 13.782C10.2295 13.782 10.4257 13.8636 10.5889 14.0268C10.7521 14.19 10.8337 14.3862 10.8337 14.6154C10.8337 14.8446 10.7521 15.0407 10.5889 15.2039C10.4257 15.3671 10.2295 15.4487 10.0003 15.4487ZM10.0003 10.8333C9.77116 10.8333 9.57498 10.7517 9.41178 10.5885C9.24859 10.4253 9.16699 10.2292 9.16699 10C9.16699 9.77083 9.24859 9.57465 9.41178 9.41146C9.57498 9.24826 9.77116 9.16667 10.0003 9.16667C10.2295 9.16667 10.4257 9.24826 10.5889 9.41146C10.7521 9.57465 10.8337 9.77083 10.8337 10C10.8337 10.2292 10.7521 10.4253 10.5889 10.5885C10.4257 10.7517 10.2295 10.8333 10.0003 10.8333ZM10.0003 6.21796C9.77116 6.21796 9.57498 6.13636 9.41178 5.97316C9.24859 5.80997 9.16699 5.61378 9.16699 5.3846C9.16699 5.15544 9.24859 4.95926 9.41178 4.79606C9.57498 4.63287 9.77116 4.55127 10.0003 4.55127C10.2295 4.55127 10.4257 4.63287 10.5889 4.79606C10.7521 4.95926 10.8337 5.15544 10.8337 5.3846C10.8337 5.61378 10.7521 5.80997 10.5889 5.97316C10.4257 6.13636 10.2295 6.21796 10.0003 6.21796Z" fill="#1C1B1F"/>
</g>
</svg>
