<svg width="20" height="20" viewBox="0 0 20 20" fill="none" xmlns="http://www.w3.org/2000/svg">
<path d="M15.9587 17.5C15.3892 17.5 14.8927 17.3299 14.4691 16.9896C14.0455 16.6493 13.7781 16.2361 13.667 15.75H9.22949C8.31283 15.75 7.55241 15.4479 6.94824 14.8438C6.34408 14.2396 6.04199 13.4792 6.04199 12.5625C6.04199 11.6458 6.34408 10.8854 6.94824 10.2812C7.55241 9.67708 8.31283 9.375 9.22949 9.375H10.8337C11.4031 9.375 11.8684 9.19444 12.2295 8.83333C12.5906 8.47222 12.7712 8.00694 12.7712 7.4375C12.7712 6.86806 12.5906 6.40278 12.2295 6.04167C11.8684 5.68056 11.4031 5.5 10.8337 5.5H6.33366C6.20866 5.98611 5.93783 6.39931 5.52116 6.73958C5.10449 7.07986 4.61144 7.25 4.04199 7.25C3.37533 7.25 2.81283 7.02083 2.35449 6.5625C1.89616 6.10417 1.66699 5.54167 1.66699 4.875C1.66699 4.20833 1.89616 3.64583 2.35449 3.1875C2.81283 2.72917 3.37533 2.5 4.04199 2.5C4.61144 2.5 5.10449 2.67014 5.52116 3.01042C5.93783 3.35069 6.20866 3.76389 6.33366 4.25H10.8337C11.7503 4.25 12.5107 4.55208 13.1149 5.15625C13.7191 5.76042 14.0212 6.52083 14.0212 7.4375C14.0212 8.35417 13.7191 9.11458 13.1149 9.71875C12.5107 10.3229 11.7503 10.625 10.8337 10.625H9.22949C8.66005 10.625 8.19477 10.8056 7.83366 11.1667C7.47255 11.5278 7.29199 11.9931 7.29199 12.5625C7.29199 13.1319 7.47255 13.5972 7.83366 13.9583C8.19477 14.3194 8.66005 14.5 9.22949 14.5H13.667C13.792 14.0139 14.0628 13.6007 14.4795 13.2604C14.8962 12.9201 15.3892 12.75 15.9587 12.75C16.6253 12.75 17.1878 12.9792 17.6462 13.4375C18.1045 13.8958 18.3337 14.4583 18.3337 15.125C18.3337 15.7917 18.1045 16.3542 17.6462 16.8125C17.1878 17.2708 16.6253 17.5 15.9587 17.5ZM4.04199 6C4.36144 6 4.6288 5.89236 4.84408 5.67708C5.05935 5.46181 5.16699 5.19444 5.16699 4.875C5.16699 4.55556 5.05935 4.28819 4.84408 4.07292C4.6288 3.85764 4.36144 3.75 4.04199 3.75C3.72255 3.75 3.45519 3.85764 3.23991 4.07292C3.02463 4.28819 2.91699 4.55556 2.91699 4.875C2.91699 5.19444 3.02463 5.46181 3.23991 5.67708C3.45519 5.89236 3.72255 6 4.04199 6Z" fill="white"/>
</svg>
