<svg width="14" height="14" viewBox="0 0 14 14" fill="none" xmlns="http://www.w3.org/2000/svg">
<path d="M10.6795 8.02085V6.16429H8.8229V5.50244H10.6795V3.64588H11.3413V5.50244H13.1979V6.16429H11.3413V8.02085H10.6795ZM5.24999 6.81156C4.68854 6.81156 4.22566 6.62941 3.86136 6.26511C3.49706 5.90081 3.31491 5.437 3.31491 4.87368C3.31491 4.31036 3.49706 3.84748 3.86136 3.48504C4.22566 3.12262 4.68854 2.94141 5.24999 2.94141C5.81143 2.94141 6.27431 3.12262 6.63861 3.48504C7.00291 3.84748 7.18506 4.31036 7.18506 4.87368C7.18506 5.437 7.00291 5.90081 6.63861 6.26511C6.27431 6.62941 5.81143 6.81156 5.24999 6.81156ZM0.875015 11.2628V10.1556C0.875015 9.86397 0.952598 9.59642 1.10776 9.353C1.26295 9.10957 1.48414 8.92542 1.77132 8.80052C2.44065 8.50586 3.0485 8.29478 3.59488 8.16727C4.14127 8.03976 4.69207 7.97601 5.24729 7.97601C5.8025 7.97601 6.35271 8.03976 6.8979 8.16727C7.44309 8.29478 8.05035 8.50586 8.71968 8.80052C9.00686 8.93514 9.22953 9.12173 9.3877 9.36029C9.54588 9.59885 9.62497 9.86397 9.62497 10.1556V11.2628H0.875015ZM1.53685 10.601H8.96312V10.1556C8.96312 10.0038 8.91657 9.85836 8.82346 9.71926C8.73035 9.58015 8.60339 9.47096 8.4426 9.39169C7.81964 9.10077 7.26868 8.9024 6.78972 8.79659C6.31077 8.69076 5.79752 8.63785 5.24999 8.63785C4.70245 8.63785 4.18677 8.69076 3.70296 8.79659C3.21914 8.9024 2.66762 9.10077 2.04839 9.39169C1.88386 9.47096 1.75747 9.58015 1.66922 9.71926C1.58097 9.85836 1.53685 10.0038 1.53685 10.1556V10.601ZM5.24999 6.14973C5.61419 6.14973 5.91745 6.02857 6.15975 5.78625C6.40206 5.54394 6.52321 5.24069 6.52321 4.87648C6.52321 4.51228 6.40206 4.20902 6.15975 3.96672C5.91745 3.72441 5.61419 3.60326 5.24999 3.60326C4.88578 3.60326 4.58253 3.72441 4.34022 3.96672C4.09791 4.20902 3.97676 4.51228 3.97676 4.87648C3.97676 5.24069 4.09791 5.54394 4.34022 5.78625C4.58253 6.02857 4.88578 6.14973 5.24999 6.14973Z" fill="white"/>
</svg>
