<svg width="57" height="57" viewBox="0 0 57 57" fill="none" xmlns="http://www.w3.org/2000/svg">
<path d="M40.4123 44.5533L40.1458 43.3875H38.95H26.3031C24.0564 43.3875 22.2809 42.6627 20.8622 41.244C19.4435 39.8253 18.7187 38.0499 18.7187 35.8031C18.7187 33.5564 19.4435 31.7809 20.8622 30.3622C22.2809 28.9435 24.0564 28.2188 26.3031 28.2188H30.875C32.8456 28.2188 34.5698 27.5797 35.9138 26.2357C37.2578 24.8916 37.8969 23.1675 37.8969 21.1969C37.8969 19.2262 37.2578 17.5021 35.9138 16.1581C34.5698 14.8141 32.8456 14.175 30.875 14.175H18.05H16.8869L16.5973 15.3014C16.3265 16.3543 15.7442 17.2631 14.7856 18.046C13.8823 18.7837 12.8177 19.1625 11.5187 19.1625C10.0039 19.1625 8.78613 18.6586 7.77004 17.6425C6.75394 16.6264 6.25 15.4086 6.25 13.8937C6.25 12.3789 6.75394 11.1611 7.77004 10.145C8.78613 9.12894 10.0039 8.625 11.5187 8.625C12.8177 8.625 13.8823 9.00384 14.7856 9.74149C15.7442 10.5244 16.3265 11.4332 16.5973 12.4861L16.8869 13.6125H18.05H30.875C33.1217 13.6125 34.8972 14.3373 36.3159 15.756C37.7346 17.1747 38.4594 18.9501 38.4594 21.1969C38.4594 23.4436 37.7346 25.2191 36.3159 26.6378C34.8972 28.0565 33.1217 28.7812 30.875 28.7812H26.3031C24.3325 28.7812 22.6084 29.4203 21.2643 30.7643C19.9203 32.1084 19.2812 33.8325 19.2812 35.8031C19.2812 37.7738 19.9203 39.4979 21.2643 40.8419C22.6084 42.1859 24.3325 42.825 26.3031 42.825H38.95H40.1131L40.4027 41.6986C40.6735 40.6457 41.2558 39.7369 42.2144 38.954C43.1177 38.2163 44.1823 37.8375 45.4812 37.8375C46.9961 37.8375 48.2139 38.3414 49.23 39.3575C50.2461 40.3736 50.75 41.5914 50.75 43.1063C50.75 44.6211 50.2461 45.8389 49.23 46.855C48.2139 47.8711 46.9961 48.375 45.4812 48.375C44.1823 48.375 43.1028 47.9959 42.1753 47.2509C41.2062 46.4725 40.6468 45.5792 40.4123 44.5533ZM11.5187 18.6C12.8052 18.6 13.9554 18.1503 14.8653 17.2403C15.7752 16.3304 16.225 15.1802 16.225 13.8937C16.225 12.6073 15.7752 11.4571 14.8653 10.5472C13.9554 9.63725 12.8052 9.1875 11.5187 9.1875C10.2323 9.1875 9.08205 9.63725 8.17215 10.5472C7.26225 11.4571 6.8125 12.6073 6.8125 13.8937C6.8125 15.1802 7.26225 16.3304 8.17215 17.2403C9.08205 18.1503 10.2323 18.6 11.5187 18.6Z" fill="#8644E2" stroke="#383838" stroke-width="3"/>
</svg>
