<svg width="17" height="16" viewBox="0 0 17 16" fill="none" xmlns="http://www.w3.org/2000/svg">
<path d="M13.2666 14C12.811 14 12.4138 13.8639 12.0749 13.5917C11.736 13.3194 11.5221 12.9889 11.4333 12.6H7.88325C7.14992 12.6 6.54158 12.3583 6.05825 11.875C5.57492 11.3917 5.33325 10.7833 5.33325 10.05C5.33325 9.31667 5.57492 8.70833 6.05825 8.225C6.54158 7.74167 7.14992 7.5 7.88325 7.5H9.16659C9.62214 7.5 9.99436 7.35556 10.2833 7.06667C10.5721 6.77778 10.7166 6.40556 10.7166 5.95C10.7166 5.49444 10.5721 5.12222 10.2833 4.83333C9.99436 4.54444 9.62214 4.4 9.16659 4.4H5.56659C5.46659 4.78889 5.24992 5.11944 4.91659 5.39167C4.58325 5.66389 4.18881 5.8 3.73325 5.8C3.19992 5.8 2.74992 5.61667 2.38325 5.25C2.01659 4.88333 1.83325 4.43333 1.83325 3.9C1.83325 3.36667 2.01659 2.91667 2.38325 2.55C2.74992 2.18333 3.19992 2 3.73325 2C4.18881 2 4.58325 2.13611 4.91659 2.40833C5.24992 2.68056 5.46659 3.01111 5.56659 3.4H9.16659C9.89992 3.4 10.5083 3.64167 10.9916 4.125C11.4749 4.60833 11.7166 5.21667 11.7166 5.95C11.7166 6.68333 11.4749 7.29167 10.9916 7.775C10.5083 8.25833 9.89992 8.5 9.16659 8.5H7.88325C7.4277 8.5 7.05547 8.64444 6.76659 8.93333C6.4777 9.22222 6.33325 9.59444 6.33325 10.05C6.33325 10.5056 6.4777 10.8778 6.76659 11.1667C7.05547 11.4556 7.4277 11.6 7.88325 11.6H11.4333C11.5333 11.2111 11.7499 10.8806 12.0833 10.6083C12.4166 10.3361 12.811 10.2 13.2666 10.2C13.7999 10.2 14.2499 10.3833 14.6166 10.75C14.9833 11.1167 15.1666 11.5667 15.1666 12.1C15.1666 12.6333 14.9833 13.0833 14.6166 13.45C14.2499 13.8167 13.7999 14 13.2666 14ZM3.73325 4.8C3.98881 4.8 4.2027 4.71389 4.37492 4.54167C4.54714 4.36944 4.63325 4.15556 4.63325 3.9C4.63325 3.64444 4.54714 3.43056 4.37492 3.25833C4.2027 3.08611 3.98881 3 3.73325 3C3.4777 3 3.26381 3.08611 3.09159 3.25833C2.91936 3.43056 2.83325 3.64444 2.83325 3.9C2.83325 4.15556 2.91936 4.36944 3.09159 4.54167C3.26381 4.71389 3.4777 4.8 3.73325 4.8Z" fill="white"/>
</svg>
