<svg width="20" height="20" viewBox="0 0 20 20" fill="none" xmlns="http://www.w3.org/2000/svg">
<path fill-rule="evenodd" clip-rule="evenodd" d="M10.0002 3.0835C6.18019 3.0835 3.0835 6.18019 3.0835 10.0002C3.0835 13.8201 6.18019 16.9168 10.0002 16.9168C13.6732 16.9168 16.6778 14.0535 16.9032 10.4376C16.9204 10.162 17.1578 9.95248 17.4334 9.96966C17.709 9.98684 17.9185 10.2242 17.9013 10.4998C17.6432 14.6395 14.2046 17.9168 10.0002 17.9168C5.62791 17.9168 2.0835 14.3724 2.0835 10.0002C2.0835 5.62791 5.62791 2.0835 10.0002 2.0835C12.9142 2.0835 15.4599 3.6582 16.8337 6.00068C16.9734 6.23888 16.8935 6.54523 16.6553 6.68492C16.4171 6.82462 16.1108 6.74476 15.9711 6.50656C14.7694 4.45753 12.545 3.0835 10.0002 3.0835Z" fill="#5B5C5B"/>
<path fill-rule="evenodd" clip-rule="evenodd" d="M17.5694 2.23836C17.844 2.26723 18.0433 2.51326 18.0144 2.78789L17.666 6.10296C17.589 6.83531 16.9329 7.36659 16.2006 7.28962L12.8855 6.94119C12.6109 6.91233 12.4116 6.6663 12.4405 6.39167C12.4694 6.11704 12.7154 5.9178 12.99 5.94667L16.3051 6.2951C16.4882 6.31434 16.6522 6.18152 16.6714 5.99843L17.0199 2.68336C17.0487 2.40873 17.2948 2.2095 17.5694 2.23836Z" fill="#5B5C5B"/>
</svg>
