<svg width="17" height="16" viewBox="0 0 17 16" fill="none" xmlns="http://www.w3.org/2000/svg">
<path d="M8.485 8.93553C8.22758 8.93553 8.00764 8.84405 7.82516 8.66109C7.64268 8.47813 7.55145 8.25793 7.55145 8.00051C7.55145 7.74309 7.64293 7.52154 7.8259 7.33588C8.00886 7.15021 8.22906 7.05738 8.48648 7.05738C8.74389 7.05738 8.96543 7.15045 9.1511 7.33661C9.33677 7.52278 9.42961 7.74457 9.42961 8.00199C9.42961 8.2594 9.33653 8.47935 9.15036 8.66183C8.96421 8.84429 8.74242 8.93553 8.485 8.93553ZM8.48733 13.6663C6.94887 13.6663 5.63264 13.1336 4.53863 12.0682C3.44462 11.0029 2.87624 9.70309 2.8335 8.16891H3.5899C3.64118 9.48941 4.13883 10.6097 5.08285 11.5298C6.02687 12.4499 7.1617 12.9099 8.48733 12.9099C9.85518 12.9099 11.0155 12.4336 11.9683 11.4809C12.9212 10.5282 13.3976 9.36801 13.3976 8.00034C13.3976 6.63268 12.9212 5.47227 11.9683 4.51913C11.0155 3.56598 9.85518 3.08941 8.48733 3.08941C7.75756 3.08941 7.07362 3.24496 6.43551 3.55608C5.79741 3.86719 5.23477 4.29026 4.7476 4.82529H6.41681V5.58169H3.42455V2.58301H4.18095V4.31121C4.73563 3.6907 5.3864 3.20587 6.13325 2.85673C6.88009 2.50758 7.66478 2.33301 8.48733 2.33301C9.27397 2.33301 10.0108 2.48173 10.6978 2.77917C11.3848 3.07661 11.9839 3.48088 12.495 3.99198C13.0061 4.50309 13.4104 5.10211 13.7078 5.78904C14.0052 6.47598 14.154 7.21273 14.154 7.99929C14.154 8.78586 14.0052 9.52273 13.7078 10.2099C13.4104 10.8971 13.0061 11.4962 12.495 12.0073C11.9839 12.5184 11.3848 12.9227 10.6978 13.2201C10.0108 13.5176 9.27397 13.6663 8.48733 13.6663Z" fill="white"/>
</svg>
