<svg width="14" height="15" viewBox="0 0 14 15" fill="none" xmlns="http://www.w3.org/2000/svg">
<path d="M5.42945 11.4376V10.5626H11.9583V11.4376H5.42945ZM5.42945 7.9376V7.06263H11.9583V7.9376H5.42945ZM5.42945 4.4376V3.56263H11.9583V4.4376H5.42945ZM3.01197 11.9704C2.74513 11.9704 2.51669 11.8754 2.32667 11.6854C2.13664 11.4954 2.04163 11.267 2.04163 11.0001C2.04163 10.7333 2.13664 10.5048 2.32667 10.3148C2.51669 10.1248 2.74513 10.0298 3.01197 10.0298C3.27882 10.0298 3.50725 10.1248 3.69727 10.3148C3.88729 10.5048 3.9823 10.7333 3.9823 11.0001C3.9823 11.267 3.88729 11.4954 3.69727 11.6854C3.50725 11.8754 3.27882 11.9704 3.01197 11.9704ZM3.01197 8.47045C2.74513 8.47045 2.51669 8.37544 2.32667 8.18542C2.13664 7.9954 2.04163 7.76696 2.04163 7.50012C2.04163 7.23327 2.13664 7.00484 2.32667 6.81482C2.51669 6.6248 2.74513 6.52979 3.01197 6.52979C3.27882 6.52979 3.50725 6.6248 3.69727 6.81482C3.88729 7.00484 3.9823 7.23327 3.9823 7.50012C3.9823 7.76696 3.88729 7.9954 3.69727 8.18542C3.50725 8.37544 3.27882 8.47045 3.01197 8.47045ZM3.01197 4.97045C2.74513 4.97045 2.51669 4.87544 2.32667 4.68542C2.13664 4.4954 2.04163 4.26696 2.04163 4.00012C2.04163 3.73327 2.13664 3.50484 2.32667 3.31482C2.51669 3.1248 2.74513 3.02979 3.01197 3.02979C3.27882 3.02979 3.50725 3.1248 3.69727 3.31482C3.88729 3.50484 3.9823 3.73327 3.9823 4.00012C3.9823 4.26696 3.88729 4.4954 3.69727 4.68542C3.50725 4.87544 3.27882 4.97045 3.01197 4.97045Z" fill="#383838"/>
</svg>
