<svg width="16" height="16" viewBox="0 0 16 16" fill="none" xmlns="http://www.w3.org/2000/svg">
<path fill-rule="evenodd" clip-rule="evenodd" d="M10.7142 11.2798C9.71964 12.1437 8.42096 12.6666 7.00016 12.6666C3.87055 12.6666 1.3335 10.1295 1.3335 6.99992C1.3335 3.87031 3.87055 1.33325 7.00016 1.33325C10.1298 1.33325 12.6668 3.87031 12.6668 6.99992C12.6668 8.4208 12.1439 9.71954 11.2799 10.7142L14.5495 13.9837C14.7057 14.1399 14.7057 14.3932 14.5495 14.5494C14.3933 14.7056 14.14 14.7056 13.9838 14.5494L10.7142 11.2798ZM11.8668 6.99992C11.8668 9.6877 9.68795 11.8666 7.00016 11.8666C4.31238 11.8666 2.1335 9.6877 2.1335 6.99992C2.1335 4.31213 4.31238 2.13325 7.00016 2.13325C9.68795 2.13325 11.8668 4.31213 11.8668 6.99992Z" fill="#1F1F1F"/>
</svg>
