<svg width="36" height="34" viewBox="0 0 36 34" fill="none" xmlns="http://www.w3.org/2000/svg">
<path d="M25.7749 25.55L19.2749 19.075C18.7749 19.5083 18.1957 19.8458 17.5374 20.0875C16.8791 20.3292 16.1916 20.45 15.4749 20.45C13.7749 20.45 12.3374 19.8625 11.1624 18.6875C9.9874 17.5125 9.3999 16.0833 9.3999 14.4C9.3999 12.7333 9.9874 11.3125 11.1624 10.1375C12.3374 8.9625 13.7666 8.375 15.4499 8.375C17.1332 8.375 18.5624 8.9625 19.7374 10.1375C20.9124 11.3125 21.4999 12.7333 21.4999 14.4C21.4999 15.1 21.3791 15.7833 21.1374 16.45C20.8957 17.1167 20.5499 17.7167 20.0999 18.25L26.5999 24.725L25.7749 25.55ZM15.4749 19.325C16.8249 19.325 17.9749 18.8458 18.9249 17.8875C19.8749 16.9292 20.3499 15.7667 20.3499 14.4C20.3499 13.0333 19.8749 11.875 18.9249 10.925C17.9749 9.975 16.8249 9.5 15.4749 9.5C14.0916 9.5 12.9249 9.975 11.9749 10.925C11.0249 11.875 10.5499 13.0333 10.5499 14.4C10.5499 15.7667 11.0249 16.9292 11.9749 17.8875C12.9249 18.8458 14.0916 19.325 15.4749 19.325Z" fill="#4F4F4F"/>
</svg>
