<svg width="20" height="20" viewBox="0 0 20 20" fill="none" xmlns="http://www.w3.org/2000/svg">
<path d="M5.79808 17.0834C5.47036 17.0834 5.18811 16.965 4.95133 16.7282C4.71456 16.4914 4.59617 16.2092 4.59617 15.8815V4.54338H3.75V3.59788H7.31408V3.01294H12.6859V3.59788H16.25V4.54338H15.4038V15.8815C15.4038 16.2083 15.2852 16.4903 15.0479 16.7275C14.8107 16.9648 14.5287 17.0834 14.2019 17.0834H5.79808ZM14.4583 4.54338H5.54165V15.8815C5.54165 15.9563 5.56702 16.0177 5.61777 16.0658C5.66853 16.1139 5.72864 16.1379 5.79808 16.1379H14.2019C14.266 16.1379 14.3248 16.1112 14.3782 16.0578C14.4316 16.0043 14.4583 15.9456 14.4583 15.8815V4.54338ZM7.94231 14.3783H8.88779V6.28215H7.94231V14.3783ZM11.1122 14.3783H12.0576V6.28215H11.1122V14.3783Z" fill="black"/>
</svg>
