<svg width="14" height="14" viewBox="0 0 14 14" fill="none" xmlns="http://www.w3.org/2000/svg">
<path d="M7 6.81156C6.43855 6.81156 5.97568 6.62941 5.61138 6.26511C5.24707 5.90081 5.06492 5.437 5.06492 4.87368C5.06492 4.31036 5.24707 3.84748 5.61138 3.48504C5.97568 3.12262 6.43855 2.94141 7 2.94141C7.56145 2.94141 8.02432 3.12262 8.38862 3.48504C8.75293 3.84748 8.93508 4.31036 8.93508 4.87368C8.93508 5.437 8.75293 5.90081 8.38862 6.26511C8.02432 6.62941 7.56145 6.81156 7 6.81156ZM2.62501 11.2628V10.1556C2.62501 9.84229 2.70803 9.56932 2.87405 9.33674C3.04008 9.10415 3.25584 8.92542 3.52134 8.80052C4.13532 8.52755 4.72719 8.32189 5.29694 8.18353C5.8667 8.04518 6.43433 7.97601 6.99983 7.97601C7.56533 7.97601 8.13152 8.04668 8.69839 8.18802C9.26527 8.32937 9.85449 8.53485 10.4661 8.80449C10.7419 8.92905 10.9624 9.10705 11.1274 9.33847C11.2925 9.5699 11.375 9.84229 11.375 10.1556V11.2628H2.62501ZM3.28686 10.601H10.7131V10.1556C10.7131 10.0038 10.6651 9.85836 10.569 9.71926C10.4729 9.58015 10.3474 9.47096 10.1926 9.39169C9.61901 9.11274 9.07796 8.91736 8.56946 8.80556C8.06097 8.69375 7.53781 8.63785 7 8.63785C6.46219 8.63785 5.93511 8.69375 5.41876 8.80556C4.90241 8.91736 4.36229 9.11274 3.7984 9.39169C3.6436 9.47096 3.51964 9.58015 3.42653 9.71926C3.33342 9.85836 3.28686 10.0038 3.28686 10.1556V10.601ZM7 6.14973C7.3642 6.14973 7.66746 6.02857 7.90977 5.78625C8.15207 5.54394 8.27323 5.24069 8.27323 4.87648C8.27323 4.51228 8.15207 4.20902 7.90977 3.96672C7.66746 3.72441 7.3642 3.60326 7 3.60326C6.6358 3.60326 6.33254 3.72441 6.09023 3.96672C5.84793 4.20902 5.72677 4.51228 5.72677 4.87648C5.72677 5.24069 5.84793 5.54394 6.09023 5.78625C6.33254 6.02857 6.6358 6.14973 7 6.14973Z" fill="white"/>
</svg>
