<svg width="14" height="14" viewBox="0 0 14 14" fill="none" xmlns="http://www.w3.org/2000/svg">
<path d="M1.02535 11.2628V10.1556C1.02535 9.84902 1.10444 9.57773 1.26262 9.34178C1.42079 9.10584 1.64223 8.92525 1.92697 8.80003C2.55836 8.52291 3.13506 8.31629 3.65706 8.18018C4.17907 8.04407 4.76109 7.97601 5.40314 7.97601C6.04519 7.97601 6.62478 8.04407 7.14192 8.18018C7.65907 8.31629 8.23521 8.52291 8.87034 8.80003C9.15133 8.92525 9.37241 9.10584 9.53356 9.34178C9.69473 9.57773 9.77531 9.84902 9.77531 10.1556V11.2628H1.02535ZM10.7288 11.2628V10.1725C10.7288 9.65345 10.608 9.22048 10.3662 8.87354C10.1245 8.5266 9.80864 8.24276 9.41862 8.02201C9.93613 8.09604 10.4278 8.19719 10.8937 8.32544C11.3597 8.45371 11.7494 8.59828 12.0629 8.75915C12.3387 8.91387 12.5596 9.11268 12.7256 9.35558C12.8916 9.59849 12.9746 9.87078 12.9746 10.1725V11.2628H10.7288ZM5.40314 6.81156C4.83981 6.81156 4.376 6.62941 4.0117 6.26511C3.64741 5.90081 3.46526 5.437 3.46526 4.87368C3.46526 4.31036 3.64741 3.84748 4.0117 3.48504C4.376 3.12262 4.83981 2.94141 5.40314 2.94141C5.96646 2.94141 6.42934 3.12262 6.79176 3.48504C7.1542 3.84748 7.33542 4.31036 7.33542 4.87368C7.33542 5.437 7.1542 5.90081 6.79176 6.26511C6.42934 6.62941 5.96646 6.81156 5.40314 6.81156ZM10.0109 4.87368C10.0109 5.437 9.82965 5.90081 9.46722 6.26511C9.10479 6.62941 8.64124 6.81156 8.07658 6.81156C8.01024 6.81156 7.93949 6.80707 7.86434 6.7981C7.78919 6.78913 7.71871 6.77268 7.6529 6.74875C7.86125 6.52153 8.01935 6.24874 8.12719 5.93038C8.23503 5.612 8.28895 5.26047 8.28895 4.87578C8.28895 4.4911 8.23285 4.14789 8.12067 3.84613C8.0085 3.54437 7.85257 3.26187 7.6529 2.99862C7.71496 2.9844 7.78544 2.97132 7.86434 2.95936C7.94323 2.94739 8.01372 2.94141 8.07578 2.94141C8.64097 2.94141 9.10479 3.12262 9.46722 3.48504C9.82965 3.84748 10.0109 4.31036 10.0109 4.87368ZM1.6872 10.601H9.11347V10.1556C9.11347 10.0001 9.06916 9.85406 8.98053 9.71758C8.89191 9.58109 8.76459 9.47246 8.59857 9.39169C7.98831 9.10676 7.4506 8.90988 6.98543 8.80106C6.52026 8.69225 5.99283 8.63785 5.40314 8.63785C4.81345 8.63785 4.28452 8.69225 3.81636 8.80106C3.34819 8.90988 2.80899 9.10676 2.19874 9.39169C2.03272 9.47246 1.90595 9.58109 1.81845 9.71758C1.73095 9.85406 1.6872 10.0001 1.6872 10.1556V10.601ZM5.40034 6.14973C5.76454 6.14973 6.0678 6.02857 6.31011 5.78625C6.55241 5.54394 6.67357 5.24069 6.67357 4.87648C6.67357 4.51228 6.55241 4.20902 6.31011 3.96672C6.0678 3.72441 5.76454 3.60326 5.40034 3.60326C5.03613 3.60326 4.73287 3.72441 4.49056 3.96672C4.24825 4.20902 4.1271 4.51228 4.1271 4.87648C4.1271 5.24069 4.24825 5.54394 4.49056 5.78625C4.73287 6.02857 5.03613 6.14973 5.40034 6.14973Z" fill="white"/>
</svg>
