<svg width="16" height="16" viewBox="0 0 16 16" fill="none" xmlns="http://www.w3.org/2000/svg">
<path d="M7.99998 7.78461C7.35833 7.78461 6.82933 7.57643 6.41298 7.16009C5.99664 6.74374 5.78847 6.21368 5.78847 5.56989C5.78847 4.92609 5.99664 4.39708 6.41298 3.98287C6.82933 3.56867 7.35833 3.36157 7.99998 3.36157C8.64164 3.36157 9.17064 3.56867 9.58698 3.98287C10.0033 4.39708 10.2115 4.92609 10.2115 5.56989C10.2115 6.21368 10.0033 6.74374 9.58698 7.16009C9.17064 7.57643 8.64164 7.78461 7.99998 7.78461ZM3 12.8718V11.6064C3 11.2483 3.09487 10.9363 3.28462 10.6705C3.47436 10.4047 3.72094 10.2004 4.02437 10.0577C4.72607 9.74574 5.40249 9.51069 6.05363 9.35257C6.70479 9.19446 7.35351 9.11541 7.99978 9.11541C8.64607 9.11541 9.29314 9.19617 9.941 9.35771C10.5889 9.51924 11.2623 9.75408 11.9612 10.0622C12.2765 10.2046 12.5284 10.408 12.717 10.6725C12.9056 10.937 13 11.2483 13 11.6064V12.8718H3ZM3.7564 12.1154H12.2436V11.6064C12.2436 11.4329 12.1886 11.2667 12.0788 11.1077C11.969 10.9487 11.8256 10.8239 11.6487 10.7333C10.9931 10.4145 10.3748 10.1912 9.79365 10.0635C9.21252 9.93568 8.61463 9.87179 7.99998 9.87179C7.38534 9.87179 6.78296 9.93568 6.19285 10.0635C5.60274 10.1912 4.98546 10.4145 4.34102 10.7333C4.16409 10.8239 4.02243 10.9487 3.91602 11.1077C3.80961 11.2667 3.7564 11.4329 3.7564 11.6064V12.1154ZM7.99998 7.02822C8.41622 7.02822 8.76279 6.88976 9.03972 6.61282C9.31664 6.3359 9.4551 5.98932 9.4551 5.57309C9.4551 5.15686 9.31664 4.81028 9.03972 4.53336C8.76279 4.25643 8.41622 4.11797 7.99998 4.11797C7.58375 4.11797 7.23717 4.25643 6.96025 4.53336C6.68333 4.81028 6.54487 5.15686 6.54487 5.57309C6.54487 5.98932 6.68333 6.3359 6.96025 6.61282C7.23717 6.88976 7.58375 7.02822 7.99998 7.02822Z" fill="black"/>
</svg>
