<svg width="14" height="14" viewBox="0 0 14 14" fill="none" xmlns="http://www.w3.org/2000/svg">
<path d="M1.02539 11.2628V10.1556C1.02539 9.84902 1.10448 9.57773 1.26266 9.34178C1.42082 9.10584 1.64227 8.92525 1.92701 8.80003C2.5584 8.52291 3.13509 8.31629 3.6571 8.18018C4.1791 8.04407 4.76113 7.97601 5.40318 7.97601C6.04522 7.97601 6.62482 8.04407 7.14196 8.18018C7.65911 8.31629 8.23524 8.52291 8.87038 8.80003C9.15137 8.92525 9.37244 9.10584 9.5336 9.34178C9.69476 9.57773 9.77535 9.84902 9.77535 10.1556V11.2628H1.02539ZM10.7289 11.2628V10.1725C10.7289 9.65345 10.608 9.22048 10.3663 8.87354C10.1246 8.5266 9.80868 8.24276 9.41865 8.02201C9.93617 8.09604 10.4279 8.19719 10.8938 8.32544C11.3597 8.45371 11.7494 8.59828 12.0629 8.75915C12.3387 8.91387 12.5596 9.11268 12.7256 9.35558C12.8917 9.59849 12.9747 9.87078 12.9747 10.1725V11.2628H10.7289ZM5.40318 6.81156C4.83985 6.81156 4.37604 6.62941 4.01174 6.26511C3.64744 5.90081 3.4653 5.437 3.4653 4.87368C3.4653 4.31036 3.64744 3.84748 4.01174 3.48504C4.37604 3.12262 4.83985 2.94141 5.40318 2.94141C5.9665 2.94141 6.42938 3.12262 6.7918 3.48504C7.15424 3.84748 7.33545 4.31036 7.33545 4.87368C7.33545 5.437 7.15424 5.90081 6.7918 6.26511C6.42938 6.62941 5.9665 6.81156 5.40318 6.81156ZM10.0109 4.87368C10.0109 5.437 9.82968 5.90081 9.46726 6.26511C9.10483 6.62941 8.64128 6.81156 8.07662 6.81156C8.01028 6.81156 7.93953 6.80707 7.86438 6.7981C7.78922 6.78913 7.71874 6.77268 7.65293 6.74875C7.86129 6.52153 8.01939 6.24874 8.12723 5.93038C8.23506 5.612 8.28898 5.26047 8.28898 4.87578C8.28898 4.4911 8.23289 4.14789 8.12071 3.84613C8.00853 3.54437 7.85261 3.26187 7.65293 2.99862C7.715 2.9844 7.78548 2.97132 7.86438 2.95936C7.94327 2.94739 8.01375 2.94141 8.07582 2.94141C8.64101 2.94141 9.10483 3.12262 9.46726 3.48504C9.82968 3.84748 10.0109 4.31036 10.0109 4.87368ZM1.68724 10.601H9.11351V10.1556C9.11351 10.0001 9.0692 9.85406 8.98057 9.71758C8.89195 9.58109 8.76463 9.47246 8.5986 9.39169C7.98835 9.10676 7.45064 8.90988 6.98547 8.80106C6.5203 8.69225 5.99287 8.63785 5.40318 8.63785C4.81348 8.63785 4.28456 8.69225 3.81639 8.80106C3.34823 8.90988 2.80902 9.10676 2.19878 9.39169C2.03275 9.47246 1.90599 9.58109 1.81849 9.71758C1.73099 9.85406 1.68724 10.0001 1.68724 10.1556V10.601ZM5.40038 6.14973C5.76458 6.14973 6.06784 6.02857 6.31014 5.78625C6.55245 5.54394 6.6736 5.24069 6.6736 4.87648C6.6736 4.51228 6.55245 4.20902 6.31014 3.96672C6.06784 3.72441 5.76458 3.60326 5.40038 3.60326C5.03616 3.60326 4.7329 3.72441 4.49059 3.96672C4.24829 4.20902 4.12713 4.51228 4.12713 4.87648C4.12713 5.24069 4.24829 5.54394 4.49059 5.78625C4.7329 6.02857 5.03616 6.14973 5.40038 6.14973Z" fill="#4F4F4F"/>
</svg>
