<svg width="14" height="14" viewBox="0 0 14 14" fill="none" xmlns="http://www.w3.org/2000/svg">
<path d="M6.66908 11.375V5.9926L5.05931 7.60237L4.58369 7.13234L7 4.71602L9.41631 7.13234L8.94069 7.60237L7.33093 5.9926V11.375H6.66908ZM2.62502 5.29374V3.46636C2.62502 3.2376 2.70805 3.04019 2.87413 2.87411C3.0402 2.70804 3.23762 2.625 3.46637 2.625H10.5336C10.7624 2.625 10.9598 2.70804 11.1259 2.87411C11.2919 3.04019 11.375 3.2376 11.375 3.46636V5.29374H10.7131V3.46636C10.7131 3.42148 10.6944 3.38034 10.657 3.34294C10.6196 3.30555 10.5785 3.28685 10.5336 3.28685H3.46637C3.42149 3.28685 3.38035 3.30555 3.34295 3.34294C3.30556 3.38034 3.28687 3.42148 3.28687 3.46636V5.29374H2.62502Z" fill="black"/>
</svg>
