<svg width="14" height="15" viewBox="0 0 14 15" fill="none" xmlns="http://www.w3.org/2000/svg">
<path d="M3.141 12.7501C2.91683 12.7501 2.72617 12.6715 2.56902 12.5144C2.41188 12.3572 2.33331 12.1666 2.33331 11.9424V4.08984C2.33331 3.86567 2.41188 3.67501 2.56902 3.51786C2.72617 3.36072 2.91683 3.28215 3.141 3.28215H4.34694V2.11548H4.86857V3.28215H9.17626V2.11548H9.66425V3.28215H10.859C11.0831 3.28215 11.2738 3.36072 11.4309 3.51786C11.5881 3.67501 11.6666 3.86567 11.6666 4.08984V11.9424C11.6666 12.1666 11.5881 12.3572 11.4309 12.5144C11.2738 12.6715 11.0831 12.7501 10.859 12.7501H3.141ZM3.141 12.3014H10.859C10.9487 12.3014 11.031 12.264 11.1058 12.1892C11.1805 12.1144 11.2179 12.0322 11.2179 11.9424V6.6251H2.78203V11.9424C2.78203 12.0322 2.81942 12.1144 2.8942 12.1892C2.969 12.264 3.05126 12.3014 3.141 12.3014ZM2.78203 6.17637H11.2179V4.08984C11.2179 4.0001 11.1805 3.91783 11.1058 3.84305C11.031 3.76826 10.9487 3.73086 10.859 3.73086H3.141C3.05126 3.73086 2.969 3.76826 2.8942 3.84305C2.81942 3.91783 2.78203 4.0001 2.78203 4.08984V6.17637Z" fill="black"/>
</svg>
