<svg width="36" height="36" viewBox="0 0 36 36" fill="none" xmlns="http://www.w3.org/2000/svg">
<rect width="36" height="36" rx="10.2857" fill="#EFDBFF"/>
<path d="M22.7899 24.8109L22.7189 24.5H22.4H17.075C16.0725 24.5 15.2645 24.1738 14.6203 23.5297C13.9762 22.8855 13.65 22.0775 13.65 21.075C13.65 20.0725 13.9762 19.2645 14.6203 18.6203C15.2645 17.9762 16.0725 17.65 17.075 17.65H19C19.7761 17.65 20.4405 17.4001 20.9578 16.8828C21.4751 16.3656 21.725 15.7011 21.725 14.925C21.725 14.1489 21.4751 13.4845 20.9578 12.9672C20.4405 12.4499 19.7761 12.2 19 12.2H13.6H13.2898L13.2126 12.5004C13.0854 12.995 12.811 13.4192 12.372 13.7777C11.9478 14.1241 11.4469 14.3 10.85 14.3C10.1527 14.3 9.58047 14.0648 9.10784 13.5922C8.63522 13.1195 8.4 12.5473 8.4 11.85C8.4 11.1527 8.63522 10.5805 9.10784 10.1078C9.58047 9.63522 10.1527 9.4 10.85 9.4C11.4469 9.4 11.9478 9.57588 12.372 9.92231C12.811 10.2808 13.0854 10.705 13.2126 11.1996L13.2898 11.5H13.6H19C20.0025 11.5 20.8105 11.8262 21.4547 12.4703C22.0988 13.1145 22.425 13.9225 22.425 14.925C22.425 15.9275 22.0988 16.7355 21.4547 17.3797C20.8105 18.0238 20.0025 18.35 19 18.35H17.075C16.2989 18.35 15.6344 18.5999 15.1172 19.1172C14.5999 19.6344 14.35 20.2989 14.35 21.075C14.35 21.8511 14.5999 22.5155 15.1172 23.0328C15.6344 23.5501 16.2989 23.8 17.075 23.8H22.4H22.7102L22.7874 23.4996C22.9146 23.005 23.189 22.5808 23.628 22.2223C24.0522 21.8759 24.5531 21.7 25.15 21.7C25.8473 21.7 26.4195 21.9352 26.8922 22.4078C27.3648 22.8805 27.6 23.4527 27.6 24.15C27.6 24.8473 27.3648 25.4195 26.8922 25.8922C26.4195 26.3648 25.8473 26.6 25.15 26.6C24.5531 26.6 24.0467 26.424 23.613 26.0757C23.1682 25.7183 22.9014 25.2983 22.7899 24.8109ZM10.85 13.6C11.3336 13.6 11.758 13.4327 12.0953 13.0953C12.4327 12.758 12.6 12.3336 12.6 11.85C12.6 11.3664 12.4327 10.942 12.0953 10.6047C11.758 10.2673 11.3336 10.1 10.85 10.1C10.3664 10.1 9.94202 10.2673 9.60466 10.6047C9.26729 10.942 9.1 11.3664 9.1 11.85C9.1 12.3336 9.26729 12.758 9.60466 13.0953C9.94202 13.4327 10.3664 13.6 10.85 13.6Z" fill="#8644E2" stroke="#383838" stroke-width="0.8"/>
</svg>
