<svg width="14" height="15" viewBox="0 0 14 15" fill="none" xmlns="http://www.w3.org/2000/svg">
<path d="M7.47678 8.75743H8.13861V6.8773H10.0187V6.21545H8.13861V4.33532H7.47678V6.21545H5.59665V6.8773H7.47678V8.75743ZM4.06093 11.1345C3.83217 11.1345 3.63476 11.0515 3.46868 10.8854C3.30262 10.7193 3.21958 10.5219 3.21958 10.2931V2.79961C3.21958 2.57085 3.30262 2.37344 3.46868 2.20736C3.63476 2.04129 3.83217 1.95825 4.06093 1.95825H11.5545C11.7832 1.95825 11.9806 2.04129 12.1467 2.20736C12.3128 2.37344 12.3958 2.57085 12.3958 2.79961V10.2931C12.3958 10.5219 12.3128 10.7193 12.1467 10.8854C11.9806 11.0515 11.7832 11.1345 11.5545 11.1345H4.06093ZM4.06093 10.4726H11.5545C11.5993 10.4726 11.6405 10.4539 11.6779 10.4166C11.7153 10.3792 11.734 10.338 11.734 10.2931V2.79961C11.734 2.75473 11.7153 2.71359 11.6779 2.67619C11.6405 2.6388 11.5993 2.6201 11.5545 2.6201H4.06093C4.01605 2.6201 3.97491 2.6388 3.93752 2.67619C3.90012 2.71359 3.88142 2.75473 3.88142 2.79961V10.2931C3.88142 10.338 3.90012 10.3792 3.93752 10.4166C3.97491 10.4539 4.01605 10.4726 4.06093 10.4726ZM2.44554 12.7499C2.2168 12.7499 2.01939 12.6668 1.85331 12.5007C1.68724 12.3347 1.6042 12.1373 1.6042 11.9085V3.75314H2.26605V11.9085C2.26605 11.9534 2.28475 11.9945 2.32214 12.0319C2.35954 12.0693 2.40068 12.088 2.44554 12.088H10.6009V12.7499H2.44554Z" fill="black"/>
</svg>
