<svg width="14" height="14" viewBox="0 0 14 14" fill="none" xmlns="http://www.w3.org/2000/svg">
<path d="M6.41108 9.64737H4.1058C3.37335 9.64737 2.749 9.38928 2.23275 8.8731C1.7165 8.35691 1.45837 7.73264 1.45837 7.00027C1.45837 6.26791 1.7165 5.64353 2.23275 5.12713C2.749 4.61074 3.37335 4.35254 4.1058 4.35254H6.41108V5.01437H4.1058C3.55363 5.01437 3.08465 5.20693 2.69888 5.59203C2.31311 5.97714 2.12022 6.44531 2.12022 6.99653C2.12022 7.54774 2.31311 8.01704 2.69888 8.40443C3.08465 8.79183 3.55363 8.98553 4.1058 8.98553H6.41108V9.64737ZM4.86863 7.33088V6.66903H9.13704V7.33088H4.86863ZM7.58897 9.64737V8.98553H9.89425C10.4464 8.98553 10.9154 8.79298 11.3012 8.40787C11.6869 8.02277 11.8798 7.5546 11.8798 7.00338C11.8798 6.45217 11.6869 5.98287 11.3012 5.59548C10.9154 5.20808 10.4464 5.01437 9.89425 5.01437H7.58897V4.35254H9.89425C10.6267 4.35254 11.2511 4.61063 11.7673 5.12681C12.2836 5.64299 12.5417 6.26727 12.5417 6.99963C12.5417 7.732 12.2836 8.35638 11.7673 8.87278C11.2511 9.38917 10.6267 9.64737 9.89425 9.64737H7.58897Z" fill="black"/>
</svg>
