<svg width="14" height="15" viewBox="0 0 14 15" fill="none" xmlns="http://www.w3.org/2000/svg">
<path d="M4.05867 12.4582C3.82927 12.4582 3.63169 12.3753 3.46595 12.2096C3.3002 12.0438 3.21733 11.8463 3.21733 11.6169V3.68019H2.62502V3.01834H5.11987V2.60889H8.88013V3.01834H11.375V3.68019H10.7827V11.6169C10.7827 11.8456 10.6996 12.043 10.5336 12.2091C10.3675 12.3752 10.1701 12.4582 9.94133 12.4582H4.05867ZM10.1208 3.68019H3.87917V11.6169C3.87917 11.6692 3.89693 11.7122 3.93245 11.7459C3.96799 11.7795 4.01006 11.7964 4.05867 11.7964H9.94133C9.98621 11.7964 10.0273 11.7777 10.0647 11.7403C10.1021 11.7029 10.1208 11.6617 10.1208 11.6169V3.68019ZM5.55963 10.5646H6.22147V4.89733H5.55963V10.5646ZM7.77853 10.5646H8.44037V4.89733H7.77853V10.5646Z" fill="black"/>
</svg>
