<svg width="30" height="30" viewBox="0 0 30 30" fill="none" xmlns="http://www.w3.org/2000/svg">
<path d="M21.5542 23.25C20.9278 23.25 20.3816 23.0628 19.9156 22.6885C19.4497 22.3142 19.1556 21.8597 19.0333 21.325H14.1521C13.1438 21.325 12.3073 20.9927 11.6427 20.3281C10.9781 19.6635 10.6458 18.8271 10.6458 17.8188C10.6458 16.8104 10.9781 15.974 11.6427 15.3094C12.3073 14.6448 13.1438 14.3125 14.1521 14.3125H15.9167C16.5431 14.3125 17.0549 14.1139 17.4521 13.7167C17.8493 13.3194 18.0479 12.8076 18.0479 12.1813C18.0479 11.5549 17.8493 11.0431 17.4521 10.6458C17.0549 10.2486 16.5431 10.05 15.9167 10.05H10.9667C10.8292 10.5847 10.5313 11.0392 10.0729 11.4135C9.61459 11.7878 9.07223 11.975 8.44584 11.975C7.71251 11.975 7.09376 11.7229 6.58959 11.2188C6.08543 10.7146 5.83334 10.0958 5.83334 9.3625C5.83334 8.62917 6.08543 8.01042 6.58959 7.50625C7.09376 7.00208 7.71251 6.75 8.44584 6.75C9.07223 6.75 9.61459 6.93715 10.0729 7.31146C10.5313 7.68576 10.8292 8.14028 10.9667 8.675H15.9167C16.925 8.675 17.7615 9.00729 18.4261 9.67188C19.0906 10.3365 19.4229 11.1729 19.4229 12.1813C19.4229 13.1896 19.0906 14.026 18.4261 14.6906C17.7615 15.3552 16.925 15.6875 15.9167 15.6875H14.1521C13.5257 15.6875 13.0139 15.8861 12.6167 16.2833C12.2195 16.6806 12.0208 17.1924 12.0208 17.8188C12.0208 18.4451 12.2195 18.9569 12.6167 19.3542C13.0139 19.7514 13.5257 19.95 14.1521 19.95H19.0333C19.1708 19.4153 19.4688 18.9608 19.9271 18.5865C20.3854 18.2122 20.9278 18.025 21.5542 18.025C22.2875 18.025 22.9063 18.2771 23.4104 18.7812C23.9146 19.2854 24.1667 19.9042 24.1667 20.6375C24.1667 21.3708 23.9146 21.9896 23.4104 22.4937C22.9063 22.9979 22.2875 23.25 21.5542 23.25ZM8.44584 10.6C8.79723 10.6 9.09133 10.4816 9.32814 10.2448C9.56494 10.008 9.68334 9.71389 9.68334 9.3625C9.68334 9.01111 9.56494 8.71701 9.32814 8.48021C9.09133 8.2434 8.79723 8.125 8.44584 8.125C8.09445 8.125 7.80036 8.2434 7.56355 8.48021C7.32675 8.71701 7.20834 9.01111 7.20834 9.3625C7.20834 9.71389 7.32675 10.008 7.56355 10.2448C7.80036 10.4816 8.09445 10.6 8.44584 10.6Z" fill="#8644E2"/>
</svg>
