<svg width="14" height="15" viewBox="0 0 14 15" fill="none" xmlns="http://www.w3.org/2000/svg">
<path d="M6.38758 10.3382L9.27957 7.44616L8.86001 7.0266L6.38421 9.50241L5.13678 8.25496L4.72059 8.67116L6.38758 10.3382ZM3.85905 12.75C3.59057 12.75 3.3664 12.6601 3.18654 12.4802C3.00668 12.3003 2.91675 12.0762 2.91675 11.8077V3.1923C2.91675 2.92382 3.00668 2.69965 3.18654 2.51979C3.3664 2.33993 3.59057 2.25 3.85905 2.25H8.45842L11.0834 4.875V11.8077C11.0834 12.0762 10.9935 12.3003 10.8136 12.4802C10.6338 12.6601 10.4096 12.75 10.1411 12.75H3.85905ZM8.16675 5.16667V2.83333H3.85905C3.76931 2.83333 3.68705 2.87073 3.61226 2.94551C3.53747 3.0203 3.50008 3.10257 3.50008 3.1923V11.8077C3.50008 11.8974 3.53747 11.9797 3.61226 12.0545C3.68705 12.1293 3.76931 12.1667 3.85905 12.1667H10.1411C10.2308 12.1667 10.3131 12.1293 10.3879 12.0545C10.4627 11.9797 10.5001 11.8974 10.5001 11.8077V5.16667H8.16675Z" fill="black"/>
</svg>
