<svg width="14" height="15" viewBox="0 0 14 15" fill="none" xmlns="http://www.w3.org/2000/svg">
<path d="M11.1708 12.75C10.7722 12.75 10.4247 12.6309 10.1281 12.3927C9.8316 12.1545 9.64445 11.8653 9.56667 11.525H6.46042C5.81875 11.525 5.28646 11.3135 4.86355 10.8906C4.44063 10.4677 4.22917 9.93542 4.22917 9.29375C4.22917 8.65208 4.44063 8.11979 4.86355 7.69687C5.28646 7.27396 5.81875 7.0625 6.46042 7.0625H7.58334C7.98195 7.0625 8.30764 6.93611 8.56042 6.68333C8.8132 6.43056 8.93959 6.10486 8.93959 5.70625C8.93959 5.30764 8.8132 4.98194 8.56042 4.72917C8.30764 4.47639 7.98195 4.35 7.58334 4.35H4.43334C4.34584 4.69028 4.15626 4.97951 3.86459 5.21771C3.57292 5.4559 3.22778 5.575 2.82917 5.575C2.3625 5.575 1.96876 5.41458 1.64792 5.09375C1.32709 4.77292 1.16667 4.37917 1.16667 3.9125C1.16667 3.44583 1.32709 3.05208 1.64792 2.73125C1.96876 2.41042 2.3625 2.25 2.82917 2.25C3.22778 2.25 3.57292 2.3691 3.86459 2.60729C4.15626 2.84549 4.34584 3.13472 4.43334 3.475H7.58334C8.225 3.475 8.7573 3.68646 9.18021 4.10937C9.60313 4.53229 9.81459 5.06458 9.81459 5.70625C9.81459 6.34792 9.60313 6.88021 9.18021 7.30312C8.7573 7.72604 8.225 7.9375 7.58334 7.9375H6.46042C6.06181 7.9375 5.73612 8.06389 5.48334 8.31667C5.23056 8.56944 5.10417 8.89514 5.10417 9.29375C5.10417 9.69236 5.23056 10.0181 5.48334 10.2708C5.73612 10.5236 6.06181 10.65 6.46042 10.65H9.56667C9.65417 10.3097 9.84375 10.0205 10.1354 9.78229C10.4271 9.5441 10.7722 9.425 11.1708 9.425C11.6375 9.425 12.0313 9.58542 12.3521 9.90625C12.6729 10.2271 12.8333 10.6208 12.8333 11.0875C12.8333 11.5542 12.6729 11.9479 12.3521 12.2687C12.0313 12.5896 11.6375 12.75 11.1708 12.75ZM2.82917 4.7C3.05278 4.7 3.23994 4.62465 3.39063 4.47396C3.54132 4.32326 3.61667 4.13611 3.61667 3.9125C3.61667 3.68889 3.54132 3.50174 3.39063 3.35104C3.23994 3.20035 3.05278 3.125 2.82917 3.125C2.60556 3.125 2.41841 3.20035 2.26771 3.35104C2.11702 3.50174 2.04167 3.68889 2.04167 3.9125C2.04167 4.13611 2.11702 4.32326 2.26771 4.47396C2.41841 4.62465 2.60556 4.7 2.82917 4.7Z" fill="#383838"/>
</svg>
