<svg width="14" height="15" viewBox="0 0 14 15" fill="none" xmlns="http://www.w3.org/2000/svg">
<path d="M4.1698 11.0342C3.91908 11.0342 3.70434 10.9448 3.52556 10.766C3.34679 10.5872 3.25741 10.3725 3.25741 10.1218V2.91239C3.25741 2.66168 3.34679 2.44693 3.52556 2.26816C3.70434 2.08939 3.91908 2 4.1698 2H11.3792C11.6299 2 11.8446 2.08939 12.0234 2.26816C12.2022 2.44693 12.2916 2.66168 12.2916 2.91239V10.1218C12.2916 10.3725 12.2022 10.5872 12.0234 10.766C11.8446 10.9448 11.6299 11.0342 11.3792 11.0342H4.1698ZM4.1698 10.3013H11.3792C11.424 10.3013 11.4652 10.2826 11.5026 10.2452C11.54 10.2078 11.5587 10.1666 11.5587 10.1218V2.91239C11.5587 2.86751 11.54 2.82638 11.5026 2.78899C11.4652 2.75159 11.424 2.73289 11.3792 2.73289H4.1698C4.12492 2.73289 4.08379 2.75159 4.04639 2.78899C4.00899 2.82638 3.99029 2.86751 3.99029 2.91239V10.1218C3.99029 10.1666 4.00899 10.2078 4.04639 10.2452C4.08379 10.2826 4.12492 10.3013 4.1698 10.3013ZM2.41235 12.7916C2.16162 12.7916 1.94688 12.7022 1.76811 12.5235C1.58934 12.3447 1.49995 12.1299 1.49995 11.8792V3.93696H2.23284V11.8792C2.23284 11.9241 2.25154 11.9652 2.28894 12.0026C2.32633 12.04 2.36747 12.0587 2.41235 12.0587H10.3546V12.7916H2.41235Z" fill="black"/>
<path d="M7.28995 8.11682L10.1151 5.29165L9.64573 4.82568L7.29539 7.18487L6.0845 5.97601L5.61511 6.44539L7.28995 8.11682Z" fill="black"/>
</svg>
