<svg width="14" height="14" viewBox="0 0 14 14" fill="none" xmlns="http://www.w3.org/2000/svg">
<path d="M6.70833 12.8334C5.82361 12.8334 5.06771 12.5296 4.44062 11.922C3.81354 11.3143 3.5 10.5681 3.5 9.68341V3.41258C3.5 2.79036 3.72118 2.2605 4.16354 1.823C4.6059 1.3855 5.13819 1.16675 5.76042 1.16675C6.39236 1.16675 6.92708 1.3855 7.36458 1.823C7.80208 2.2605 8.02083 2.79522 8.02083 3.42716V9.173C8.02083 9.54244 7.89444 9.85598 7.64167 10.1136C7.38889 10.3713 7.07778 10.5001 6.70833 10.5001C6.33889 10.5001 6.02778 10.3615 5.775 10.0845C5.52222 9.80737 5.39583 9.47925 5.39583 9.10008V3.38341H5.97917V9.14383C5.97917 9.35772 6.04965 9.54001 6.19062 9.69071C6.3316 9.8414 6.50417 9.91675 6.70833 9.91675C6.9125 9.91675 7.08507 9.84383 7.22604 9.698C7.36701 9.55217 7.4375 9.37716 7.4375 9.173V3.41258C7.4375 2.94591 7.27465 2.55216 6.94896 2.23133C6.62326 1.9105 6.22708 1.75008 5.76042 1.75008C5.29375 1.75008 4.89757 1.9105 4.57187 2.23133C4.24618 2.55216 4.08333 2.94591 4.08333 3.41258V9.71258C4.08333 10.4223 4.34097 11.0227 4.85625 11.5136C5.37153 12.0046 5.98889 12.2501 6.70833 12.2501C7.4375 12.2501 8.05729 12.0022 8.56771 11.5063C9.07812 11.0105 9.33333 10.4029 9.33333 9.68341V3.38341H9.91667V9.66883C9.91667 10.5536 9.60312 11.3022 8.97604 11.9147C8.34896 12.5272 7.59306 12.8334 6.70833 12.8334Z" fill="black"/>
</svg>
