<svg width="14" height="14" viewBox="0 0 14 14" fill="none" xmlns="http://www.w3.org/2000/svg">
<path d="M6.99999 6.81156C6.43854 6.81156 5.97566 6.62941 5.61136 6.26511C5.24706 5.90081 5.06491 5.437 5.06491 4.87368C5.06491 4.31036 5.24706 3.84748 5.61136 3.48504C5.97566 3.12262 6.43854 2.94141 6.99999 2.94141C7.56143 2.94141 8.02431 3.12262 8.38861 3.48504C8.75291 3.84748 8.93506 4.31036 8.93506 4.87368C8.93506 5.437 8.75291 5.90081 8.38861 6.26511C8.02431 6.62941 7.56143 6.81156 6.99999 6.81156ZM2.625 11.2628V10.1556C2.625 9.84229 2.70801 9.56932 2.87404 9.33674C3.04007 9.10415 3.25583 8.92542 3.52132 8.80052C4.13531 8.52755 4.72718 8.32189 5.29693 8.18353C5.86669 8.04518 6.43432 7.97601 6.99981 7.97601C7.56531 7.97601 8.1315 8.04668 8.69837 8.18802C9.26526 8.32937 9.85448 8.53485 10.466 8.80449C10.7419 8.92905 10.9623 9.10705 11.1274 9.33847C11.2924 9.5699 11.375 9.84229 11.375 10.1556V11.2628H2.625ZM3.28685 10.601H10.7131V10.1556C10.7131 10.0038 10.6651 9.85836 10.569 9.71926C10.4729 9.58015 10.3474 9.47096 10.1926 9.39169C9.619 9.11274 9.07795 8.91736 8.56944 8.80556C8.06095 8.69375 7.5378 8.63785 6.99999 8.63785C6.46217 8.63785 5.93509 8.69375 5.41874 8.80556C4.9024 8.91736 4.36228 9.11274 3.79839 9.39169C3.64358 9.47096 3.51962 9.58015 3.42651 9.71926C3.3334 9.85836 3.28685 10.0038 3.28685 10.1556V10.601ZM6.99999 6.14973C7.36419 6.14973 7.66744 6.02857 7.90975 5.78625C8.15206 5.54394 8.27321 5.24069 8.27321 4.87648C8.27321 4.51228 8.15206 4.20902 7.90975 3.96672C7.66744 3.72441 7.36419 3.60326 6.99999 3.60326C6.63578 3.60326 6.33253 3.72441 6.09022 3.96672C5.84791 4.20902 5.72676 4.51228 5.72676 4.87648C5.72676 5.24069 5.84791 5.54394 6.09022 5.78625C6.33253 6.02857 6.63578 6.14973 6.99999 6.14973Z" fill="black"/>
</svg>
